<svg width="42" height="42" viewBox="0 0 42 42" fill="none" xmlns="http://www.w3.org/2000/svg">
<g id="ant-design:linkedin-filled">
<path id="Vector" d="M35.6981 4.98438H6.23899C5.53053 4.98438 4.95816 5.55675 4.95816 6.26521V35.7243C4.95816 36.4328 5.53053 37.0052 6.23899 37.0052H35.6981C36.4066 37.0052 36.9789 36.4328 36.9789 35.7243V6.26521C36.9789 5.55675 36.4066 4.98438 35.6981 4.98438ZM14.4563 32.2701H9.70524V16.9882H14.4563V32.2701ZM12.0828 14.8988C11.5381 14.8988 11.0057 14.7373 10.5529 14.4347C10.1 14.1321 9.74704 13.702 9.53862 13.1988C9.33019 12.6957 9.27565 12.142 9.38191 11.6078C9.48817 11.0736 9.75044 10.5829 10.1356 10.1978C10.5207 9.81268 11.0114 9.5504 11.5455 9.44415C12.0797 9.33789 12.6334 9.39243 13.1366 9.60085C13.6398 9.80928 14.0699 10.1622 14.3725 10.6151C14.6751 11.068 14.8366 11.6004 14.8366 12.145C14.8326 13.666 13.5998 14.8988 12.0828 14.8988ZM32.2439 32.2701H27.4968V24.8373C27.4968 23.0641 27.4648 20.7866 25.0272 20.7866C22.5576 20.7866 22.1773 22.7159 22.1773 24.7092V32.2701H17.4343V16.9882H21.9892V19.0775H22.0533C22.6857 17.8767 24.2347 16.6079 26.5482 16.6079C31.3593 16.6079 32.2439 19.774 32.2439 23.8886V32.2701Z" fill="white"/>
</g>
</svg>
