<svg width="42" height="42" viewBox="0 0 42 42" fill="none" xmlns="http://www.w3.org/2000/svg">
<g id="ant-design:twitter-outlined">
<path id="Vector" d="M37.6449 10.6809C36.4201 11.2092 35.0873 11.5895 33.7144 11.7376C35.1398 10.8908 36.2072 9.55297 36.7163 7.97514C35.3788 8.77082 33.9135 9.32876 32.3855 9.62421C31.7469 8.94148 30.9745 8.39758 30.1165 8.02641C29.2584 7.65524 28.3332 7.46475 27.3983 7.46681C23.6158 7.46681 20.5739 10.5328 20.5739 14.2952C20.5739 14.8236 20.6379 15.3519 20.742 15.8603C15.0783 15.5641 10.027 12.8583 6.66884 8.71562C6.05694 9.76076 5.73629 10.9508 5.74023 12.1619C5.74023 14.5314 6.94502 16.6208 8.78221 17.8496C7.69952 17.8069 6.64219 17.5093 5.69621 16.981V17.065C5.69621 20.3832 8.04173 23.133 11.1678 23.7654C10.5808 23.9179 9.97701 23.9958 9.37059 23.9975C8.9263 23.9975 8.50603 23.9535 8.08175 23.8935C8.94631 26.5992 11.4639 28.5645 14.4619 28.6285C12.1164 30.4657 9.17846 31.5464 5.98839 31.5464C5.41602 31.5464 4.88768 31.5264 4.33932 31.4624C7.36529 33.4036 10.9556 34.5244 14.8221 34.5244C27.3743 34.5244 34.2427 24.1256 34.2427 15.0998C34.2427 14.8036 34.2427 14.5074 34.2227 14.2112C35.5516 13.2386 36.7163 12.0338 37.6449 10.6809Z" fill="white"/>
</g>
</svg>
