<svg width="42" height="42" viewBox="0 0 42 42" fill="none" xmlns="http://www.w3.org/2000/svg">
<g id="ant-design:facebook-filled">
<path id="Vector" d="M35.7103 4.98438H6.2512C5.54274 4.98438 4.97037 5.55675 4.97037 6.26521V35.7243C4.97037 36.4328 5.54274 37.0052 6.2512 37.0052H35.7103C36.4188 37.0052 36.9911 36.4328 36.9911 35.7243V6.26521C36.9911 5.55675 36.4188 4.98438 35.7103 4.98438ZM32.0119 14.3304H29.4543C27.449 14.3304 27.0607 15.2831 27.0607 16.684V19.77H31.8478L31.2234 24.6011H27.0607V37.0052H22.0695V24.6051H17.8948V19.77H22.0695V16.2077C22.0695 12.073 24.5951 9.81951 28.2855 9.81951C30.0546 9.81951 31.5716 9.9516 32.0159 10.0116V14.3304H32.0119Z" fill="white"/>
</g>
</svg>
