<svg width="47" height="47" viewBox="0 0 47 47" fill="none" xmlns="http://www.w3.org/2000/svg">
<g id="bx:bx-map">
<path id="Vector" d="M23.5 27.3353C27.7282 27.3353 31.1667 23.8968 31.1667 19.6686C31.1667 15.4405 27.7282 12.002 23.5 12.002C19.2718 12.002 15.8333 15.4405 15.8333 19.6686C15.8333 23.8968 19.2718 27.3353 23.5 27.3353ZM23.5 15.8353C25.6141 15.8353 27.3333 17.5545 27.3333 19.6686C27.3333 21.7827 25.6141 23.502 23.5 23.502C21.3859 23.502 19.6667 21.7827 19.6667 19.6686C19.6667 17.5545 21.3859 15.8353 23.5 15.8353Z" fill="white"/>
<path id="Vector_2" d="M22.3884 42.3118C22.7128 42.5435 23.1014 42.668 23.5001 42.668C23.8987 42.668 24.2873 42.5435 24.6117 42.3118C25.1944 41.8997 38.889 32.0116 38.8334 19.6683C38.8334 11.2139 31.9545 4.33496 23.5001 4.33496C15.0457 4.33496 8.16673 11.2139 8.16673 19.6587C8.11115 32.0116 21.8057 41.8997 22.3884 42.3118ZM23.5001 8.16829C29.8423 8.16829 35.0001 13.326 35.0001 19.6779C35.0403 28.184 26.5897 35.822 23.5001 38.327C20.4123 35.82 11.9598 28.1802 12.0001 19.6683C12.0001 13.326 17.1578 8.16829 23.5001 8.16829Z" fill="white"/>
</g>
</svg>
